<?xml version="1.0" encoding="utf-8"?>
<!-- Generator: Adobe Illustrator 17.0.0, SVG Export Plug-In . SVG Version: 6.00 Build 0)  -->
<!DOCTYPE svg PUBLIC "-//W3C//DTD SVG 1.1//EN" "http://www.w3.org/Graphics/SVG/1.1/DTD/svg11.dtd">
<svg version="1.1"
	 id="svg2" xmlns:dc="http://purl.org/dc/elements/1.1/" xmlns:cc="http://creativecommons.org/ns#" xmlns:rdf="http://www.w3.org/1999/02/22-rdf-syntax-ns#" xmlns:svg="http://www.w3.org/2000/svg" xmlns:sodipodi="http://sodipodi.sourceforge.net/DTD/sodipodi-0.dtd" xmlns:inkscape="http://www.inkscape.org/namespaces/inkscape" sodipodi:docname="logo.svg" inkscape:version="0.48.4 r9939"
	 xmlns="http://www.w3.org/2000/svg" xmlns:xlink="http://www.w3.org/1999/xlink" x="0px" y="0px" width="144px" height="24px"
	 viewBox="0 0 144 24" enable-background="new 0 0 144 24" xml:space="preserve">
<sodipodi:namedview  fit-margin-left="0" fit-margin-top="0" inkscape:cy="-17.0856" inkscape:cx="119.216" inkscape:zoom="3.20763" showgrid="true" id="namedview6" guidetolerance="10" gridtolerance="10" objecttolerance="10" borderopacity="1" bordercolor="#666666" pagecolor="#ffffff" fit-margin-bottom="0" fit-margin-right="0" inkscape:current-layer="svg2" inkscape:window-maximized="1" inkscape:window-y="0" inkscape:window-x="0" inkscape:window-height="1148" inkscape:window-width="1920" inkscape:snap-bbox="true" inkscape:pageshadow="2" inkscape:pageopacity="0">
	
		<inkscape:grid  originy="1.99605px" originx="-13.0035px" enabled="true" visible="true" empspacing="4" type="xygrid" id="grid2985" snapvisiblegridlinesonly="true">
		</inkscape:grid>
</sodipodi:namedview>
<g>
	<g>
		<g>
			<polygon fill="#FFFFFF" points="10.061,13.117 7.958,10.554 5.394,10.554 10.061,16.732 17.75,7.268 15.122,7.268 			"/>
			<path fill="#FFFFFF" d="M20.116,1.484H3.029c-1.118,0-1.972,0.854-1.972,1.972v17.087c0,1.118,0.854,1.972,1.972,1.972h17.088
				c1.117,0,1.972-0.854,1.972-1.972V3.456C22.088,2.339,21.234,1.484,20.116,1.484z M8.418,2.865c0.394,0,0.789,0.329,0.789,0.789
				c0,0.46-0.329,0.789-0.789,0.789c-0.46,0-0.789-0.394-0.789-0.789C7.629,3.259,7.958,2.865,8.418,2.865z M6.183,2.865
				c0.394,0,0.789,0.329,0.789,0.789c0,0.46-0.328,0.789-0.789,0.789S5.395,4.113,5.395,3.653C5.394,3.193,5.789,2.865,6.183,2.865z
				 M4.015,2.865c0.394,0,0.789,0.329,0.789,0.789c0,0.46-0.329,0.789-0.789,0.789c-0.395,0-0.789-0.329-0.789-0.789
				S3.62,2.865,4.015,2.865z M19.788,18.901c0,0.724-0.592,1.314-1.314,1.314H4.672c-0.723,0-1.314-0.591-1.314-1.314V7.071
				c0-0.723,0.591-1.314,1.314-1.314h5.586c1.314,0,1.249,0,1.249-0.657c0-0.92,0.657-1.314,1.38-1.314h5.586
				c0.724,0,1.314,0.591,1.314,1.314L19.788,18.901L19.788,18.901z"/>
		</g>
	</g>
</g>
<g>
	<path fill="#FFFFFF" d="M44.004,5.361h4.973c0.607,0,1.182,0.256,1.724,0.768c0.542,0.511,0.814,1.131,0.814,1.858
		c0,0.273-0.097,0.504-0.29,0.693s-0.407,0.284-0.642,0.284c-0.326,0-0.55-0.074-0.671-0.222s-0.237-0.422-0.347-0.824
		c-0.11-0.401-0.355-0.603-0.735-0.603h-4.726c-0.228,0-0.341,0.074-0.341,0.221c-0.006,0.093,0.04,0.2,0.139,0.321l7.1,9.053
		c0.342,0.439,0.513,0.909,0.513,1.409c0,0.568-0.207,1.068-0.62,1.501c-0.413,0.432-0.874,0.647-1.381,0.647h-5.149
		c-0.682,0-1.275-0.26-1.779-0.778c-0.504-0.52-0.756-1.09-0.756-1.711c0-0.712,0.333-1.068,1-1.068
		c0.257,0,0.477,0.093,0.659,0.278c0.182,0.186,0.273,0.403,0.273,0.653c0,0.205,0.07,0.375,0.21,0.512s0.316,0.205,0.529,0.205
		h4.751c0.205,0,0.307-0.081,0.307-0.244c0.005-0.077-0.041-0.176-0.14-0.297l-7.088-9.054c-0.334-0.432-0.501-0.901-0.501-1.409
		c0-0.591,0.212-1.104,0.637-1.54C42.893,5.579,43.405,5.361,44.004,5.361z"/>
	<path fill="#FFFFFF" d="M55.846,5.361h7.729c0.25,0,0.472,0.095,0.665,0.284c0.193,0.19,0.29,0.413,0.29,0.671
		c0,0.265-0.095,0.495-0.284,0.688c-0.189,0.193-0.413,0.29-0.671,0.29h-2.887v11.265h2.887c0.265,0,0.491,0.093,0.676,0.278
		s0.279,0.411,0.279,0.676c0,0.266-0.095,0.491-0.284,0.677c-0.189,0.186-0.413,0.278-0.671,0.278h-7.729
		c-0.266,0-0.491-0.093-0.677-0.278c-0.186-0.186-0.278-0.411-0.278-0.677c0-0.265,0.093-0.49,0.278-0.676
		c0.186-0.186,0.411-0.278,0.677-0.278h2.933V7.293h-2.933c-0.266,0-0.491-0.095-0.677-0.284c-0.186-0.189-0.278-0.413-0.278-0.671
		c0-0.272,0.093-0.503,0.278-0.693C55.355,5.456,55.581,5.361,55.846,5.361z"/>
	<path fill="#FFFFFF" d="M67.975,19.513V5.361h8.661c0.25,0,0.472,0.095,0.665,0.284c0.193,0.19,0.29,0.413,0.29,0.671
		c0,0.265-0.095,0.495-0.284,0.688c-0.189,0.193-0.413,0.29-0.671,0.29h-6.751v3h4.842c0.265,0,0.491,0.093,0.676,0.279
		c0.186,0.186,0.279,0.411,0.279,0.676s-0.093,0.491-0.279,0.676c-0.186,0.186-0.411,0.278-0.676,0.278h-4.842v7.309
		c0,0.266-0.093,0.491-0.279,0.677s-0.411,0.278-0.676,0.278s-0.491-0.093-0.676-0.278S67.975,19.778,67.975,19.513z"/>
	<path fill="#FFFFFF" d="M80.091,19.138l3.845-13.066c0.153-0.474,0.476-0.71,0.966-0.71c0.475,0,0.773,0.201,0.896,0.603
		l3.808,13.265c0.03,0.099,0.045,0.193,0.045,0.284c0,0.266-0.091,0.491-0.272,0.677s-0.39,0.278-0.625,0.278
		c-0.5,0-0.818-0.231-0.954-0.693l-0.755-2.592h-4.372l-0.832,2.776c-0.023,0.121-0.118,0.235-0.286,0.345
		c-0.167,0.109-0.35,0.164-0.548,0.164c-0.282,0-0.515-0.095-0.697-0.284s-0.274-0.421-0.274-0.693
		C80.034,19.377,80.054,19.259,80.091,19.138z M84.888,9.783l-1.638,5.468h3.23L84.888,9.783z"/>
	<path fill="#FFFFFF" d="M104.133,17.604V6.338c0-0.265,0.095-0.494,0.284-0.688s0.413-0.29,0.671-0.29
		c0.257,0,0.48,0.095,0.671,0.284c0.188,0.19,0.283,0.413,0.283,0.671v11.288c0,0.25,0.095,0.468,0.284,0.653
		s0.413,0.278,0.671,0.278h3.91c0.266,0,0.49-0.091,0.677-0.272c0.186-0.182,0.278-0.401,0.278-0.659V6.338
		c0-0.272,0.093-0.503,0.278-0.693c0.186-0.189,0.411-0.284,0.677-0.284c0.265,0,0.49,0.095,0.676,0.284
		c0.186,0.19,0.278,0.421,0.278,0.693v11.243c0,0.788-0.282,1.466-0.847,2.034s-1.237,0.853-2.018,0.853h-3.91
		c-0.788,0-1.462-0.28-2.023-0.841C104.413,19.066,104.133,18.392,104.133,17.604z"/>
	<path fill="#FFFFFF" d="M121.453,18.559h3.446c0.266,0,0.495,0.093,0.688,0.278s0.29,0.411,0.29,0.676
		c0,0.266-0.097,0.491-0.29,0.677s-0.423,0.278-0.688,0.278h-3.569c-0.454,0-0.925-0.144-1.409-0.432
		c-0.485-0.288-0.822-0.61-1.012-0.967l-2.205-4.262c-0.296-0.614-0.443-1.243-0.443-1.888c0-0.712,0.14-1.33,0.421-1.853
		l2.228-4.217c0.212-0.394,0.542-0.741,0.989-1.04c0.446-0.299,0.879-0.449,1.295-0.449h3.774c0.265,0,0.49,0.095,0.676,0.284
		c0.186,0.19,0.278,0.413,0.278,0.671c0,0.265-0.093,0.495-0.278,0.688c-0.186,0.193-0.41,0.29-0.676,0.29h-3.636
		c-0.303,0.001-0.549,0.179-0.738,0.535l-2.118,3.954c-0.167,0.311-0.25,0.678-0.248,1.104c-0.002,0.448,0.089,0.843,0.271,1.184
		l2.021,3.888C120.71,18.359,121.021,18.56,121.453,18.559z"/>
	<path fill="#FFFFFF" d="M137.938,6.338v3.513l-3.892,9.899c-0.196,0.479-0.507,0.718-0.93,0.718c-0.446,0-0.764-0.238-0.953-0.716
		L128.3,9.851V6.338c0-0.272,0.093-0.503,0.278-0.693c0.187-0.189,0.412-0.284,0.678-0.284s0.492,0.095,0.678,0.284
		c0.187,0.189,0.279,0.42,0.279,0.693v3.113l2.906,7.413l2.905-7.391V6.338c0-0.272,0.093-0.503,0.278-0.693
		c0.187-0.189,0.412-0.284,0.679-0.284c0.266,0,0.491,0.095,0.678,0.284C137.846,5.835,137.938,6.066,137.938,6.338z"/>
</g>
</svg>
