<?xml version="1.0" encoding="utf-8"?>
<!-- Generator: Adobe Illustrator 17.0.0, SVG Export Plug-In . SVG Version: 6.00 Build 0)  -->
<!DOCTYPE svg PUBLIC "-//W3C//DTD SVG 1.1//EN" "http://www.w3.org/Graphics/SVG/1.1/DTD/svg11.dtd">
<svg version="1.1"
	 id="svg2" xmlns:dc="http://purl.org/dc/elements/1.1/" xmlns:cc="http://creativecommons.org/ns#" xmlns:rdf="http://www.w3.org/1999/02/22-rdf-syntax-ns#" xmlns:svg="http://www.w3.org/2000/svg" xmlns:sodipodi="http://sodipodi.sourceforge.net/DTD/sodipodi-0.dtd" xmlns:inkscape="http://www.inkscape.org/namespaces/inkscape" sodipodi:docname="logo-big.svg" inkscape:version="0.48.4 r9939"
	 xmlns="http://www.w3.org/2000/svg" xmlns:xlink="http://www.w3.org/1999/xlink" x="0px" y="0px" width="300px" height="45px"
	 viewBox="0 0 300 45" enable-background="new 0 0 300 45" xml:space="preserve">
<sodipodi:namedview  fit-margin-left="0" fit-margin-top="0" inkscape:cy="25.0294" inkscape:cx="172.252" inkscape:zoom="2.82843" showgrid="true" id="namedview6" guidetolerance="10" gridtolerance="10" objecttolerance="10" borderopacity="1" bordercolor="#666666" pagecolor="#ffffff" fit-margin-bottom="0" fit-margin-right="0" inkscape:current-layer="svg2" inkscape:window-maximized="1" inkscape:window-y="0" inkscape:window-x="0" inkscape:window-height="1148" inkscape:window-width="1920" inkscape:snap-bbox="true" inkscape:pageshadow="2" inkscape:pageopacity="0">
	
		<inkscape:grid  originy="1.9998px" originx="-11.9998px" enabled="true" visible="true" empspacing="4" type="xygrid" id="grid2985" snapvisiblegridlinesonly="true">
		</inkscape:grid>
</sodipodi:namedview>
<g>
	<polygon fill="#E31937" points="30.628,24.594 26.691,19.797 21.892,19.797 30.628,31.36 45.019,13.646 40.1,13.646 	"/>
	<path fill="#005596" d="M49.447,2.82H17.466c-2.093,0-3.691,1.598-3.691,3.691v31.982c0,2.093,1.598,3.691,3.691,3.691h31.983
		c2.091,0,3.691-1.598,3.691-3.691V6.511C53.138,4.421,51.54,2.82,49.447,2.82z M27.552,5.405c0.737,0,1.477,0.616,1.477,1.477
		s-0.616,1.477-1.477,1.477c-0.861,0-1.477-0.737-1.477-1.477S26.691,5.405,27.552,5.405z M23.369,5.405
		c0.737,0,1.477,0.616,1.477,1.477s-0.614,1.477-1.477,1.477s-1.475-0.618-1.475-1.479C21.892,6.019,22.632,5.405,23.369,5.405z
		 M19.311,5.405c0.737,0,1.477,0.616,1.477,1.477s-0.616,1.477-1.477,1.477c-0.739,0-1.477-0.616-1.477-1.477
		S18.572,5.405,19.311,5.405z M48.834,35.42c0,1.355-1.108,2.459-2.459,2.459H20.541c-1.353,0-2.459-1.106-2.459-2.459V13.277
		c0-1.353,1.106-2.459,2.459-2.459h10.455c2.459,0,2.338,0,2.338-1.23c0-1.722,1.23-2.459,2.583-2.459h10.455
		c1.355,0,2.459,1.106,2.459,2.459L48.834,35.42L48.834,35.42z"/>
</g>
<g>
	<path fill="#E31937" d="M81.672,6.446h10.569c1.29,0,2.512,0.544,3.664,1.632c1.152,1.086,1.73,2.404,1.73,3.949
		c0,0.58-0.206,1.071-0.616,1.473c-0.41,0.402-0.865,0.604-1.364,0.604c-0.693,0-1.169-0.157-1.426-0.472s-0.504-0.897-0.737-1.751
		c-0.234-0.852-0.754-1.282-1.562-1.282H81.884c-0.485,0-0.725,0.157-0.725,0.47c-0.013,0.198,0.085,0.425,0.295,0.682l15.089,19.24
		c0.727,0.933,1.09,1.932,1.09,2.995c0,1.207-0.44,2.27-1.318,3.19c-0.878,0.918-1.857,1.375-2.935,1.375H82.439
		c-1.449,0-2.71-0.553-3.781-1.653c-1.071-1.105-1.607-2.317-1.607-3.636c0-1.513,0.708-2.27,2.125-2.27
		c0.546,0,1.014,0.198,1.401,0.591c0.387,0.395,0.58,0.856,0.58,1.388c0,0.436,0.149,0.797,0.446,1.088
		c0.298,0.291,0.672,0.436,1.124,0.436h10.097c0.436,0,0.652-0.172,0.652-0.519c0.011-0.164-0.087-0.374-0.298-0.631L78.116,14.101
		c-0.71-0.918-1.065-1.915-1.065-2.995c0-1.256,0.451-2.346,1.354-3.273C79.311,6.909,80.399,6.446,81.672,6.446z"/>
	<path fill="#E31937" d="M106.839,6.446h16.426c0.531,0,1.003,0.202,1.413,0.604c0.41,0.404,0.616,0.878,0.616,1.426
		c0,0.563-0.202,1.052-0.604,1.462c-0.402,0.41-0.878,0.616-1.426,0.616h-6.136v23.941h6.136c0.563,0,1.044,0.198,1.437,0.591
		s0.593,0.873,0.593,1.437c0,0.565-0.202,1.044-0.604,1.439c-0.402,0.395-0.878,0.591-1.426,0.591h-16.426
		c-0.565,0-1.044-0.198-1.439-0.591c-0.395-0.395-0.591-0.873-0.591-1.439c0-0.563,0.198-1.041,0.591-1.437
		c0.395-0.395,0.873-0.591,1.439-0.591h6.233V10.552h-6.233c-0.565,0-1.044-0.202-1.439-0.604c-0.395-0.402-0.591-0.878-0.591-1.426
		c0-0.578,0.198-1.069,0.591-1.473C105.796,6.648,106.276,6.446,106.839,6.446z"/>
	<path fill="#E31937" d="M132.617,36.523V6.446h18.407c0.531,0,1.003,0.202,1.413,0.604c0.41,0.404,0.616,0.878,0.616,1.426
		c0,0.563-0.202,1.052-0.604,1.462c-0.402,0.41-0.878,0.616-1.426,0.616h-14.348v6.376h10.291c0.563,0,1.044,0.198,1.437,0.593
		c0.395,0.395,0.593,0.873,0.593,1.437s-0.198,1.044-0.593,1.437c-0.395,0.395-0.873,0.591-1.437,0.591h-10.291V36.52
		c0,0.565-0.198,1.044-0.593,1.439s-0.873,0.591-1.437,0.591c-0.563,0-1.044-0.198-1.437-0.591
		C132.816,37.566,132.617,37.086,132.617,36.523z"/>
	<path fill="#E31937" d="M158.367,35.726l8.172-27.769c0.325-1.007,1.012-1.509,2.053-1.509c1.01,0,1.643,0.427,1.904,1.282
		l8.093,28.192c0.064,0.21,0.096,0.41,0.096,0.604c0,0.565-0.193,1.044-0.578,1.439s-0.829,0.591-1.328,0.591
		c-1.063,0-1.738-0.491-2.028-1.473l-1.605-5.509h-9.292l-1.768,5.9c-0.049,0.257-0.251,0.499-0.608,0.733
		c-0.355,0.232-0.744,0.349-1.165,0.349c-0.599,0-1.095-0.202-1.481-0.604s-0.582-0.895-0.582-1.473
		C158.245,36.234,158.288,35.983,158.367,35.726z M168.561,15.844l-3.481,11.621h6.865L168.561,15.844z"/>
	<path fill="#E31937" d="M209.462,32.465V8.522c0-0.563,0.202-1.05,0.604-1.462c0.402-0.412,0.878-0.616,1.426-0.616
		c0.546,0,1.02,0.202,1.426,0.604c0.4,0.404,0.601,0.878,0.601,1.426v23.99c0,0.531,0.202,0.995,0.604,1.388
		c0.402,0.393,0.878,0.591,1.426,0.591h8.31c0.565,0,1.041-0.193,1.439-0.578c0.395-0.387,0.591-0.852,0.591-1.401V8.522
		c0-0.578,0.198-1.069,0.591-1.473c0.395-0.402,0.874-0.604,1.439-0.604c0.563,0,1.041,0.202,1.437,0.604
		c0.395,0.404,0.591,0.895,0.591,1.473v23.894c0,1.675-0.599,3.116-1.8,4.323c-1.201,1.207-2.629,1.813-4.289,1.813h-8.31
		c-1.675,0-3.107-0.595-4.299-1.787C210.057,35.573,209.462,34.14,209.462,32.465z"/>
	<path fill="#E31937" d="M246.272,34.495h7.324c0.565,0,1.052,0.198,1.462,0.591c0.41,0.393,0.616,0.873,0.616,1.437
		c0,0.565-0.206,1.044-0.616,1.439c-0.41,0.395-0.899,0.591-1.462,0.591h-7.585c-0.965,0-1.966-0.306-2.994-0.918
		c-1.031-0.612-1.747-1.296-2.151-2.055l-4.686-9.058c-0.629-1.305-0.941-2.642-0.941-4.013c0-1.513,0.298-2.827,0.895-3.938
		l4.735-8.962c0.451-0.837,1.152-1.575,2.102-2.21c0.948-0.635,1.868-0.954,2.752-0.954h8.021c0.563,0,1.041,0.202,1.437,0.604
		c0.395,0.404,0.591,0.878,0.591,1.426c0,0.563-0.198,1.052-0.591,1.462c-0.395,0.41-0.871,0.616-1.437,0.616h-7.727
		c-0.644,0.002-1.167,0.38-1.568,1.137l-4.501,8.403c-0.355,0.661-0.531,1.441-0.527,2.346c-0.004,0.952,0.189,1.792,0.576,2.516
		l4.295,8.263C244.693,34.07,245.354,34.497,246.272,34.495z"/>
	<path fill="#E31937" d="M281.307,8.522v7.466l-8.272,21.038c-0.417,1.018-1.078,1.526-1.977,1.526
		c-0.948,0-1.624-0.506-2.025-1.522l-8.21-21.042V8.522c0-0.578,0.198-1.069,0.591-1.473c0.397-0.402,0.876-0.604,1.441-0.604
		s1.046,0.202,1.441,0.604c0.397,0.402,0.593,0.893,0.593,1.473v6.616l6.176,15.755l6.174-15.708V8.522
		c0-0.578,0.198-1.069,0.591-1.473c0.397-0.402,0.876-0.604,1.443-0.604c0.565,0,1.043,0.202,1.441,0.604
		C281.112,7.453,281.307,7.944,281.307,8.522z"/>
</g>
</svg>
